# This file uses centimeters as units for non-parametric coordinates.

mtllib Cave.mtl
g default
v -2.411063 0.021200 -1.500000
v 2.411063 0.021200 -1.500000
v -2.411063 1.843444 -1.500000
v 2.411063 1.843444 -1.500000
v -2.411063 1.843444 -2.500000
v 2.411063 1.843444 -2.500000
v -2.411063 0.021200 -2.500000
v 2.411063 0.021200 -2.500000
v 2.411063 2.226127 -2.423880
v 2.411063 2.550550 -2.207107
v 2.411063 2.767323 -1.882683
v 2.411063 2.843444 -1.500000
v -2.411063 2.226127 -2.423880
v -2.411063 2.550550 -2.207107
v -2.411063 2.767323 -1.882683
v -2.411063 2.843444 -1.500000
vt 0.375000 0.000000
vt 0.625000 0.000000
vt 0.375000 0.250000
vt 0.625000 0.250000
vt 0.375000 0.500000
vt 0.625000 0.500000
vt 0.375000 0.750000
vt 0.625000 0.750000
vt 0.375000 1.000000
vt 0.625000 1.000000
vt 0.875000 0.000000
vt 0.875000 0.250000
vt 0.125000 0.000000
vt 0.125000 0.250000
vt 0.625000 0.500000
vt 0.625000 0.500000
vt 0.625000 0.500000
vt 0.625000 0.500000
vt 0.375000 0.500000
vt 0.375000 0.500000
vt 0.375000 0.500000
vt 0.375000 0.500000
vn 0.000000 0.000000 1.000000
vn 0.000000 0.000000 1.000000
vn 0.000000 0.000000 1.000000
vn 0.000000 0.000000 1.000000
vn 0.000000 0.000000 1.000000
vn 0.000000 0.000000 1.000000
vn 0.000000 0.000000 1.000000
vn 0.000000 0.000000 1.000000
vn 0.000000 0.034502 -0.999405
vn 0.000000 0.034502 -0.999405
vn 0.000000 0.000000 -1.000000
vn 0.000000 0.000000 -1.000000
vn 0.000000 -1.000000 0.000000
vn 0.000000 -1.000000 0.000000
vn 0.000000 -1.000000 0.000000
vn 0.000000 -1.000000 0.000000
vn 1.000000 0.000000 0.000000
vn 1.000000 0.000000 0.000000
vn 1.000000 0.000000 0.000000
vn 1.000000 0.000000 0.000000
vn -1.000000 0.000000 0.000000
vn -1.000000 0.000000 0.000000
vn -1.000000 0.000000 0.000000
vn -1.000000 0.000000 0.000000
vn 1.000000 0.000000 0.000000
vn 1.000000 0.000000 0.000000
vn 1.000000 0.000000 0.000000
vn 1.000000 0.000000 0.000000
vn 0.000000 0.382683 -0.923880
vn 0.000000 0.382683 -0.923880
vn 0.000000 0.707107 -0.707107
vn 0.000000 0.707107 -0.707107
vn 0.000000 0.923880 -0.382683
vn 0.000000 0.923880 -0.382683
vn 0.000000 0.980785 -0.195090
vn 0.000000 0.980785 -0.195090
vn -1.000000 0.000000 0.000000
vn -1.000000 0.000000 0.000000
vn -1.000000 0.000000 0.000000
vn -1.000000 0.000000 0.000000
s off
g pCube1
usemtl initialShadingGroup
f 1/1/1 2/2/2 4/4/3 3/3/4
f 3/3/5 4/4/6 12/18/7 16/22/8
s 1
f 5/5/9 6/6/10 8/8/11 7/7/12
s off
f 7/7/13 8/8/14 2/10/15 1/9/16
s 2
f 2/2/17 8/11/18 6/12/19 4/4/20
s 3
f 7/13/21 1/1/22 3/3/23 5/14/24
s 2
f 4/4/20 6/6/19 9/15/25
f 4/4/20 9/15/25 10/16/26
f 4/4/20 10/16/26 11/17/27
f 4/4/20 11/17/27 12/18/28
s 1
f 6/6/10 5/5/9 13/19/29 9/15/30
f 9/15/30 13/19/29 14/20/31 10/16/32
f 10/16/32 14/20/31 15/21/33 11/17/34
f 11/17/34 15/21/33 16/22/35 12/18/36
s 3
f 5/5/24 3/3/23 13/19/37
f 13/19/37 3/3/23 14/20/38
f 14/20/38 3/3/23 15/21/39
f 15/21/39 3/3/23 16/22/40
g default
v 2.411063 0.021200 1.500000
v -2.411063 0.021200 1.500000
v 2.411063 1.843444 1.500000
v -2.411063 1.843444 1.500000
v 2.411063 1.843444 2.500000
v -2.411063 1.843444 2.500000
v 2.411063 0.021200 2.500000
v -2.411063 0.021200 2.500000
v -2.411063 2.226127 2.423880
v -2.411063 2.550550 2.207107
v -2.411063 2.767323 1.882683
v -2.411063 2.843444 1.500000
v 2.411063 2.226127 2.423880
v 2.411063 2.550550 2.207107
v 2.411063 2.767323 1.882683
v 2.411063 2.843444 1.500000
v 2.411063 1.843444 -1.511974
v -2.411063 1.843444 -1.511974
v -2.411063 2.843444 -1.511974
v 2.411063 2.843444 -1.511974
v 0.023720 0.021200 1.500000
v 0.023720 0.021200 2.500000
v 0.023720 1.843444 2.500000
v 0.023720 2.226127 2.423880
v 0.023720 2.550550 2.207107
v 0.023720 2.767323 1.882683
v 0.023720 2.843444 1.500000
v 0.023720 2.843444 -1.511974
v 0.023720 1.843444 -1.511974
v 0.023720 1.843444 1.500000
v -2.225726 3.110393 1.500000
v -1.697931 2.995377 1.500000
v -0.908031 2.989417 1.500000
v 0.023720 3.174753 1.500000
v -2.225726 3.110393 -1.511974
v -1.697931 2.995377 -1.511974
v -0.908031 2.989417 -1.511974
v 0.023720 3.174753 -1.511974
v 2.229337 3.092238 1.500000
v 1.711826 2.961832 1.500000
v 0.937316 2.945588 1.500000
v 0.023720 3.127313 1.500000
v 2.229337 3.092238 -1.511974
v 1.711826 2.961832 -1.511974
v 0.937316 2.945588 -1.511974
v 0.023720 3.127313 -1.511974
vt 0.375000 0.000000
vt 0.625000 0.000000
vt 0.375000 0.250000
vt 0.625000 0.250000
vt 0.375000 0.500000
vt 0.625000 0.500000
vt 0.375000 0.750000
vt 0.625000 0.750000
vt 0.375000 1.000000
vt 0.625000 1.000000
vt 0.875000 0.000000
vt 0.875000 0.250000
vt 0.125000 0.000000
vt 0.125000 0.250000
vt 0.625000 0.500000
vt 0.625000 0.500000
vt 0.625000 0.500000
vt 0.625000 0.500000
vt 0.375000 0.500000
vt 0.375000 0.500000
vt 0.375000 0.500000
vt 0.375000 0.500000
vt 0.375000 0.250000
vt 0.625000 0.250000
vt 0.625000 0.500000
vt 0.375000 0.500000
vt 0.498770 0.000000
vt 0.498770 1.000000
vt 0.498770 0.750000
vt 0.498770 0.500000
vt 0.498770 0.500000
vt 0.498770 0.500000
vt 0.498770 0.500000
vt 0.498770 0.500000
vt 0.498770 0.500000
vt 0.498770 0.250000
vt 0.498770 0.250000
vt 0.625000 0.500000
vt 0.625000 0.500000
vt 0.625000 0.500000
vt 0.625000 0.500000
vt 0.625000 0.500000
vt 0.625000 0.500000
vt 0.625000 0.500000
vt 0.625000 0.500000
vt 0.375000 0.500000
vt 0.375000 0.500000
vt 0.375000 0.500000
vt 0.375000 0.500000
vt 0.375000 0.500000
vt 0.375000 0.500000
vt 0.375000 0.500000
vt 0.375000 0.500000
vn 0.000000 0.000000 -1.000000
vn 0.000000 0.000000 -1.000000
vn 0.000000 0.000000 -1.000000
vn 0.000000 0.000000 -1.000000
vn -0.000000 0.000000 -1.000000
vn 0.000000 0.000000 -1.000000
vn 0.000000 0.000000 -1.000000
vn 0.000000 0.000000 -1.000000
vn -0.000000 0.000000 1.000000
vn -0.000000 0.034502 0.999405
vn -0.000000 0.034502 0.999405
vn -0.000000 0.000000 1.000000
vn 0.000000 -1.000000 0.000000
vn 0.000000 -1.000000 0.000000
vn 0.000000 -1.000000 0.000000
vn 0.000000 -1.000000 0.000000
vn -1.000000 0.000000 -0.000000
vn -1.000000 0.000000 -0.000000
vn -1.000000 0.000000 -0.000000
vn -1.000000 0.000000 -0.000000
vn 1.000000 0.000000 0.000000
vn 1.000000 0.000000 0.000000
vn 1.000000 0.000000 0.000000
vn 1.000000 0.000000 0.000000
vn -1.000000 0.000000 -0.000000
vn -1.000000 0.000000 -0.000000
vn -1.000000 0.000000 -0.000000
vn -0.990323 0.138781 -0.000000
vn -0.000000 0.382683 0.923880
vn -0.000000 0.382683 0.923880
vn -0.000000 0.707107 0.707107
vn -0.000000 0.707107 0.707107
vn 0.000000 0.923880 0.382683
vn -0.000000 0.923880 0.382683
vn -0.000000 0.980785 0.195091
vn -0.000000 0.980785 0.195090
vn 1.000000 0.000000 0.000000
vn 1.000000 0.000000 0.000000
vn 1.000000 0.000000 0.000000
vn 0.990434 0.137987 0.000000
vn 0.000000 -1.000000 0.000000
vn 0.000000 -1.000000 0.000000
vn 0.000000 -1.000000 0.000000
vn 0.000000 -1.000000 0.000000
vn -0.989469 0.144745 -0.000000
vn -1.000000 0.000000 -0.000000
vn 1.000000 0.000000 0.000000
vn 1.000000 0.000000 0.000000
vn 1.000000 0.000000 0.000000
vn 1.000000 0.000000 0.000000
vn 1.000000 0.000000 0.000000
vn 0.989577 0.144004 0.000000
vn 0.000000 -1.000000 0.000000
vn 0.000000 -1.000000 0.000000
vn -0.000000 0.034502 0.999405
vn -0.000000 0.000000 1.000000
vn -0.000000 0.382683 0.923880
vn -0.000000 0.707107 0.707107
vn 0.000000 0.923880 0.382683
vn 0.000000 0.980785 0.195091
vn -1.000000 0.000000 -0.000000
vn -1.000000 0.000000 -0.000000
vn -1.000000 0.000000 -0.000000
vn -1.000000 0.000000 -0.000000
vn 0.000000 0.000000 -1.000000
vn 0.000000 0.000000 -1.000000
vn 0.000000 -1.000000 0.000000
vn 0.000000 -1.000000 0.000000
vn 0.000000 0.000000 -1.000000
vn 0.000000 0.000000 -1.000000
vn -0.000000 0.000000 1.000000
vn -0.000000 0.000000 1.000000
vn -0.000000 0.000000 1.000000
vn 0.000000 0.000001 -1.000000
vn -0.000000 0.000001 1.000000
vn -0.000000 0.000001 1.000000
vn 0.000000 0.000000 -1.000000
vn 0.000000 0.000000 1.000000
vn 0.000000 0.000000 -1.000000
vn 0.000000 0.000000 -1.000000
vn -0.208374 0.978049 -0.000000
vn -0.208374 0.978049 -0.000000
vn 0.091424 0.995812 0.000000
vn 0.091424 0.995812 0.000000
vn -0.103628 0.994616 -0.000000
vn -0.103628 0.994616 -0.000000
vn -0.195090 0.980785 -0.000000
vn -0.195090 0.980785 -0.000000
vn 0.000000 0.000001 1.000000
vn 0.000000 0.000000 1.000000
vn 0.000000 0.000000 1.000000
vn -0.000000 0.000001 -1.000000
vn 0.000000 0.000002 1.000000
vn 0.000000 0.000001 1.000000
vn 0.166935 0.985968 0.000000
vn 0.166935 0.985968 0.000000
vn -0.112781 0.993620 -0.000000
vn -0.112781 0.993620 -0.000000
vn 0.097560 0.995230 0.000000
vn 0.097560 0.995230 0.000000
vn 0.195090 0.980785 0.000000
vn 0.195090 0.980785 0.000000
vn 0.000000 0.000000 -1.000000
vn -0.000000 0.000000 1.000000
vn -0.000000 0.000000 -1.000000
vn -0.000000 0.000000 -1.000000
s 1
g pCube2
usemtl initialShadingGroup
f 46/59/41 37/49/42 18/24/43 20/26/44
s 2
f 44/57/45 45/58/46 34/46/47 35/47/48
s 3
f 38/51/49 39/52/50 22/28/51 24/30/52
s 4
f 37/50/53 38/51/54 24/30/55 18/32/56
s 5
f 18/24/57 24/33/58 22/34/59 20/26/60
s 6
f 23/35/61 17/23/62 19/25/63 21/36/64
s 5
f 20/26/60 22/28/59 25/37/65
f 20/26/60 25/37/65 26/38/66
f 20/26/60 26/38/66 27/39/67
f 20/26/60 27/39/67 28/40/68
s 3
f 22/28/51 39/52/50 40/53/69 25/37/70
f 25/37/70 40/53/69 41/54/71 26/38/72
f 26/38/72 41/54/71 42/55/73 27/39/74
f 27/39/74 42/55/73 43/56/75 28/40/76
s 6
f 21/27/64 19/25/63 29/41/77
f 29/41/77 19/25/63 30/42/78
f 30/42/78 19/25/63 31/43/79
f 31/43/79 19/25/63 32/44/80
s 7
f 45/58/81 46/59/82 20/26/83 34/46/84
s 5
f 20/26/60 28/40/68 35/47/85 34/46/86
s off
f 50/63/87 43/56/88 44/57/89 54/67/90
s 6
f 32/44/80 19/25/63 33/45/91 36/48/92
s 4
f 23/29/93 38/51/54 37/50/53 17/31/94
s 3
f 21/27/95 39/52/50 38/51/49 23/29/96
f 40/53/69 39/52/50 21/27/95 29/41/97
f 41/54/71 40/53/69 29/41/97 30/42/98
f 42/55/73 41/54/71 30/42/98 31/43/99
f 43/56/75 42/55/73 31/43/99 32/44/100
s off
f 44/57/101 43/56/102 58/71/103 62/75/104
s 2
f 33/45/105 45/58/46 44/57/45 36/48/106
s 7
f 19/25/107 46/59/82 45/58/81 33/45/108
s 1
f 17/23/109 37/49/42 46/59/41 19/25/110
s 8
f 28/40/111 43/56/112 47/60/113
f 47/60/113 43/56/112 48/61/114
f 48/61/114 43/56/112 49/62/115
f 49/62/115 43/56/112 50/63/116
s 2
f 44/57/45 35/47/48 51/64/117
f 44/57/45 51/64/117 52/65/118
f 44/57/45 52/65/118 53/66/119
f 44/57/45 53/66/119 54/67/120
s 5
f 35/47/85 28/40/68 47/60/121 51/64/122
f 51/64/122 47/60/121 48/61/123 52/65/124
f 52/65/124 48/61/123 49/62/125 53/66/126
f 53/66/126 49/62/125 50/63/127 54/67/128
s 9
f 43/56/129 32/44/130 55/68/131
f 43/56/129 55/68/131 56/69/132
f 43/56/129 56/69/132 57/70/133
f 43/56/129 57/70/133 58/71/134
s 6
f 32/44/80 36/48/92 59/72/135 55/68/136
f 55/68/136 59/72/135 60/73/137 56/69/138
f 56/69/138 60/73/137 61/74/139 57/70/140
f 57/70/140 61/74/139 62/75/141 58/71/142
s 2
f 36/48/106 44/57/45 59/72/143
f 59/72/143 44/57/45 60/73/144
f 60/73/144 44/57/45 61/74/145
f 61/74/145 44/57/45 62/75/146
g default
v -2.519477 0.021200 1.565967
v -1.519477 0.021200 1.565967
v -2.519477 1.843444 1.565967
v -1.519477 1.843444 1.565967
v -2.519477 1.843444 -1.565967
v -1.519477 1.843444 -1.565967
v -2.519477 0.021200 -1.565967
v -1.519477 0.021200 -1.565967
vt 0.375000 0.000000
vt 0.625000 0.000000
vt 0.375000 0.250000
vt 0.625000 0.250000
vt 0.375000 0.500000
vt 0.625000 0.500000
vt 0.375000 0.750000
vt 0.625000 0.750000
vt 0.375000 1.000000
vt 0.625000 1.000000
vt 0.875000 0.000000
vt 0.875000 0.250000
vt 0.125000 0.000000
vt 0.125000 0.250000
vn 0.000000 0.000000 1.000000
vn 0.000000 0.000000 1.000000
vn 0.000000 0.000000 1.000000
vn 0.000000 0.000000 1.000000
vn 0.000000 1.000000 0.000000
vn 0.000000 1.000000 0.000000
vn 0.000000 1.000000 0.000000
vn 0.000000 1.000000 0.000000
vn 0.000000 0.000000 -1.000000
vn 0.000000 0.000000 -1.000000
vn 0.000000 0.000000 -1.000000
vn 0.000000 0.000000 -1.000000
vn 0.000000 -1.000000 0.000000
vn 0.000000 -1.000000 0.000000
vn 0.000000 -1.000000 0.000000
vn 0.000000 -1.000000 0.000000
vn 1.000000 0.000000 0.000000
vn 1.000000 0.000000 0.000000
vn 1.000000 0.000000 0.000000
vn 1.000000 0.000000 0.000000
vn -1.000000 0.000000 0.000000
vn -1.000000 0.000000 0.000000
vn -1.000000 0.000000 0.000000
vn -1.000000 0.000000 0.000000
s off
g pCube3
usemtl initialShadingGroup
f 63/76/147 64/77/148 66/79/149 65/78/150
f 65/78/151 66/79/152 68/81/153 67/80/154
f 67/80/155 68/81/156 70/83/157 69/82/158
f 69/82/159 70/83/160 64/85/161 63/84/162
f 64/77/163 70/86/164 68/87/165 66/79/166
f 69/88/167 63/76/168 65/78/169 67/89/170
