# This file uses centimeters as units for non-parametric coordinates.

mtllib CharacterModel.mtl
g default
v -0.390163 4.607924 -1.612857
v -0.398696 4.610424 -0.805263
v 0.342704 4.619362 -0.797457
v 0.351237 4.616862 -1.605051
v -0.364577 2.479454 -1.605997
v -0.373110 2.481954 -0.798403
v 0.368290 2.490891 -0.790598
v 0.376823 2.488391 -1.598192
vt 0.689934 0.495565
vt 0.689339 0.380423
vt 0.748153 0.380419
vt 0.748748 0.495561
vt 0.813120 0.496101
vt 0.757901 0.498796
vt 0.759715 0.389343
vt 0.814246 0.387968
vt 0.691096 0.377156
vt 0.693834 0.001912
vt 0.747501 0.008395
vt 0.753152 0.375250
vt 0.688328 0.374991
vt 0.688328 0.005988
vt 0.748819 0.000058
vt 0.748819 0.369061
vt 0.688839 0.369572
vt 0.687600 0.004327
vt 0.751165 0.000589
vt 0.752404 0.365834
vt 0.690080 0.003953
vt 0.691833 0.375361
vt 0.751610 0.369261
vt 0.749856 -0.002147
vn -0.012020 0.999923 -0.003222
vn -0.012020 0.999923 -0.003222
vn -0.012020 0.999923 -0.003222
vn -0.012020 0.999923 -0.003222
vn 0.012020 -0.999923 0.003222
vn 0.012020 -0.999923 0.003222
vn 0.012020 -0.999923 0.003222
vn 0.012020 -0.999923 0.003222
vn -0.999872 -0.012054 -0.010527
vn -0.999872 -0.012054 -0.010527
vn -0.999872 -0.012054 -0.010527
vn -0.999872 -0.012054 -0.010527
vn -0.010565 0.003095 0.999939
vn -0.010565 0.003095 0.999939
vn -0.010565 0.003095 0.999939
vn -0.010565 0.003095 0.999939
vn 0.999872 0.012053 0.010527
vn 0.999872 0.012053 0.010527
vn 0.999872 0.012053 0.010527
vn 0.999872 0.012053 0.010527
vn 0.010564 -0.003096 -0.999939
vn 0.010565 -0.003095 -0.999939
vn 0.010564 -0.003096 -0.999939
vn 0.010565 -0.003095 -0.999939
s 1
g polySurface1 Mesh
usemtl Material
f 1/1/1 2/2/2 4/4/3
f 4/4/3 2/2/2 3/3/4
s 2
f 5/5/5 8/6/6 6/8/7
f 6/8/7 8/6/6 7/7/8
s 3
f 1/9/9 5/10/10 2/12/11
f 2/12/11 5/10/10 6/11/12
s 4
f 2/13/13 6/14/14 3/16/15
f 3/16/15 6/14/14 7/15/16
s 5
f 3/17/17 7/18/18 4/20/19
f 4/20/19 7/18/18 8/19/20
s 6
f 5/21/21 1/22/22 8/24/23
f 8/24/23 1/22/22 4/23/24
g default
v -0.370748 2.485916 -0.809520
v -0.370748 2.485916 -0.001877
v 0.370748 2.485916 -0.001877
v 0.370747 2.485916 -0.809520
v -0.370748 0.357280 -0.809520
v -0.370747 0.357280 -0.001876
v 0.370748 0.357280 -0.001877
v 0.370748 0.357280 -0.809520
vt 0.122711 0.377515
vt 0.122790 0.486939
vt 0.062175 0.489947
vt 0.062097 0.380523
vt 0.185797 0.496086
vt 0.129150 0.496087
vt 0.130335 0.384604
vt 0.186982 0.384604
vt 0.250211 0.373175
vt 0.250211 0.001371
vt 0.187955 -0.001314
vt 0.187955 0.370491
vt -0.003674 0.368140
vt 0.003760 -0.002275
vt 0.065964 -0.002528
vt 0.058530 0.367886
vt 0.068050 0.365241
vt 0.068050 0.003935
vt 0.122484 0.003935
vt 0.122484 0.365241
vt 0.187525 0.000071
vt 0.187524 0.370784
vt 0.125900 0.370784
vt 0.125900 0.000071
vn 0.000000 1.000000 0.000000
vn 0.000000 1.000000 -0.000000
vn 0.000000 1.000000 -0.000000
vn 0.000000 1.000000 -0.000000
vn 0.000000 -1.000000 0.000000
vn 0.000000 -1.000000 0.000000
vn 0.000000 -1.000000 0.000000
vn 0.000000 -1.000000 0.000000
vn -1.000000 0.000000 0.000000
vn -1.000000 -0.000000 0.000001
vn -1.000000 -0.000000 0.000000
vn -1.000000 -0.000000 0.000001
vn 0.000000 0.000000 1.000000
vn 0.000001 0.000000 1.000000
vn 0.000000 0.000000 1.000000
vn 0.000001 0.000000 1.000000
vn 1.000000 0.000000 -0.000001
vn 1.000000 0.000000 -0.000000
vn 1.000000 0.000000 -0.000001
vn 1.000000 0.000000 0.000000
vn 0.000000 0.000000 -1.000000
vn -0.000001 -0.000000 -1.000000
vn -0.000000 -0.000000 -1.000000
vn -0.000001 -0.000000 -1.000000
s 1
g Mesh polySurface2
usemtl Material
f 9/25/25 10/26/26 12/28/27
f 12/28/27 10/26/26 11/27/28
s 2
f 13/29/29 16/30/30 14/32/31
f 14/32/31 16/30/30 15/31/32
s 3
f 9/33/33 13/34/34 10/36/35
f 10/36/35 13/34/34 14/35/36
s 4
f 10/37/37 14/38/38 11/40/39
f 11/40/39 14/38/38 15/39/40
s 5
f 11/41/41 15/42/42 12/44/43
f 12/44/43 15/42/42 16/43/44
s 6
f 13/45/45 9/46/46 16/48/47
f 16/48/47 9/46/46 12/47/48
g default
v -0.370748 2.485916 0.000321
v -0.370748 2.485916 0.807964
v 0.370748 2.485916 0.807964
v 0.370747 2.485916 0.000321
v -0.370748 0.357280 0.000321
v -0.370747 0.357280 0.807964
v 0.370748 0.357280 0.807964
v 0.370748 0.357280 0.000321
vt 0.124564 0.372844
vt 0.123284 0.495731
vt 0.062259 0.497328
vt 0.063538 0.374441
vt 0.179068 0.489942
vt 0.130391 0.486732
vt 0.129081 0.397994
vt 0.177758 0.401205
vt 0.250211 0.370491
vt 0.250211 0.001371
vt 0.190639 -0.001314
vt 0.190639 0.367806
vt 0.000878 0.373364
vt 0.000878 0.010074
vt 0.062985 0.010074
vt 0.062985 0.373364
vt 0.065586 0.375905
vt 0.065375 0.003473
vt 0.124947 0.003338
vt 0.125158 0.375770
vt 0.000807 0.009620
vt 0.000807 0.377727
vt 0.059514 0.377727
vt 0.059514 0.009620
vn 0.000000 1.000000 0.000000
vn 0.000000 1.000000 -0.000000
vn 0.000000 1.000000 -0.000000
vn 0.000000 1.000000 -0.000000
vn 0.000000 -1.000000 0.000000
vn 0.000000 -1.000000 0.000000
vn 0.000000 -1.000000 0.000000
vn 0.000000 -1.000000 0.000000
vn -1.000000 0.000000 0.000000
vn -1.000000 -0.000000 0.000001
vn -1.000000 -0.000000 0.000000
vn -1.000000 -0.000000 0.000001
vn 0.000000 0.000000 1.000000
vn 0.000001 -0.000000 1.000000
vn 0.000000 -0.000000 1.000000
vn 0.000001 -0.000000 1.000000
vn 1.000000 0.000000 -0.000001
vn 1.000000 0.000000 -0.000000
vn 1.000000 0.000000 -0.000001
vn 1.000000 0.000000 0.000000
vn 0.000000 0.000000 -1.000000
vn 0.000000 0.000000 -1.000000
vn 0.000000 0.000000 -1.000000
vn 0.000000 0.000000 -1.000000
s 1
g Mesh polySurface3
usemtl Material
f 17/49/49 18/50/50 20/52/51
f 20/52/51 18/50/50 19/51/52
s 2
f 21/53/53 24/54/54 22/56/55
f 22/56/55 24/54/54 23/55/56
s 3
f 17/57/57 21/58/58 18/60/59
f 18/60/59 21/58/58 22/59/60
s 4
f 18/61/61 22/62/62 19/64/63
f 19/64/63 22/62/62 23/63/64
s 5
f 19/65/65 23/66/66 20/68/67
f 20/68/67 23/66/66 24/67/68
s 6
f 21/69/69 17/70/70 24/72/71
f 24/72/71 17/70/70 20/71/72
g default
v -0.390163 2.484453 1.625018
v -0.398696 2.481953 0.817423
v 0.342704 2.473015 0.809617
v 0.351237 2.475516 1.617212
v -0.364577 4.612924 1.618158
v -0.373110 4.610424 0.810564
v 0.368290 4.601486 0.802758
v 0.376823 4.603986 1.610353
vt 0.810749 0.385914
vt 0.811271 0.499729
vt 0.759676 0.499733
vt 0.759154 0.385918
vt 0.686919 0.378174
vt 0.749925 0.378174
vt 0.749289 0.500739
vt 0.686282 0.500739
vt 0.747193 0.001975
vt 0.748349 0.364560
vt 0.693041 0.364662
vt 0.691885 0.002077
vt 0.752226 0.003554
vt 0.753944 0.372404
vt 0.690567 0.378607
vt 0.688849 0.009758
vt 0.756093 0.006957
vt 0.756694 0.363210
vt 0.689552 0.364713
vt 0.688950 0.008460
vt 0.692350 0.372208
vt 0.697119 0.006768
vt 0.755237 0.007035
vt 0.750468 0.372475
vn -0.012018 -0.999923 0.003222
vn -0.012019 -0.999923 0.003223
vn -0.012019 -0.999923 0.003223
vn -0.012020 -0.999923 0.003223
vn 0.012020 0.999923 -0.003222
vn 0.012020 0.999923 -0.003222
vn 0.012020 0.999923 -0.003222
vn 0.012020 0.999923 -0.003222
vn -0.999872 0.012054 0.010527
vn -0.999872 0.012054 0.010527
vn -0.999872 0.012054 0.010527
vn -0.999872 0.012054 0.010527
vn -0.010565 -0.003095 -0.999939
vn -0.010565 -0.003095 -0.999939
vn -0.010565 -0.003095 -0.999939
vn -0.010565 -0.003095 -0.999939
vn 0.999872 -0.012053 -0.010527
vn 0.999872 -0.012053 -0.010527
vn 0.999872 -0.012053 -0.010527
vn 0.999872 -0.012053 -0.010527
vn 0.010564 0.003096 0.999939
vn 0.010565 0.003095 0.999939
vn 0.010564 0.003096 0.999939
vn 0.010565 0.003095 0.999939
s 1
g Mesh polySurface4
usemtl Material
f 25/73/73 26/74/74 28/76/75
f 28/76/75 26/74/74 27/75/76
s 2
f 29/77/77 32/78/78 30/80/79
f 30/80/79 32/78/78 31/79/80
s 3
f 25/81/81 29/82/82 26/84/83
f 26/84/83 29/82/82 30/83/84
s 4
f 26/85/85 30/86/86 27/88/87
f 27/88/87 30/86/86 31/87/88
s 5
f 27/89/89 31/90/90 28/92/91
f 28/92/91 31/90/90 32/91/92
s 6
f 29/93/93 25/94/94 32/96/95
f 32/96/95 25/94/94 28/95/96
g default
v -0.370748 4.610424 -0.804347
v -0.370748 4.610424 0.827248
v 0.370748 4.610424 0.827248
v 0.370747 4.610424 -0.804348
v -0.370748 2.481788 -0.804347
v -0.370747 2.481788 0.827248
v 0.370748 2.481788 0.827248
v 0.370748 2.481788 -0.804347
vt 0.439419 0.501069
vt 0.313044 0.494516
vt 0.314588 0.373515
vt 0.440962 0.380069
vt 0.183671 0.494358
vt 0.127578 0.496613
vt 0.129334 0.382434
vt 0.185427 0.380179
vt 0.622224 0.375264
vt 0.625501 0.005748
vt 0.508958 0.000506
vt 0.505681 0.370022
vt 0.309159 0.373364
vt 0.309159 -0.002509
vt 0.249632 -0.002509
vt 0.249632 0.373364
vt 0.312738 0.372217
vt 0.312738 0.000239
vt 0.438887 0.000239
vt 0.438887 0.372217
vt 0.500000 -0.005172
vt 0.500000 0.370784
vt 0.441207 0.370784
vt 0.441206 -0.005172
vn 0.000000 1.000000 0.000000
vn 0.000000 1.000000 -0.000000
vn 0.000000 1.000000 -0.000000
vn 0.000000 1.000000 -0.000000
vn 0.000000 -1.000000 -0.000000
vn 0.000000 -1.000000 -0.000000
vn 0.000000 -1.000000 -0.000000
vn 0.000000 -1.000000 0.000000
vn -1.000000 0.000000 0.000000
vn -1.000000 -0.000000 0.000000
vn -1.000000 -0.000000 0.000000
vn -1.000000 -0.000000 0.000000
vn 0.000001 0.000000 1.000000
vn 0.000001 0.000000 1.000000
vn 0.000001 0.000000 1.000000
vn 0.000001 0.000000 1.000000
vn 1.000000 0.000000 -0.000000
vn 1.000000 0.000000 -0.000000
vn 1.000000 0.000000 -0.000000
vn 1.000000 0.000000 0.000000
vn 0.000000 0.000000 -1.000000
vn -0.000001 -0.000000 -1.000000
vn -0.000000 -0.000000 -1.000000
vn -0.000001 -0.000000 -1.000000
s 1
g Mesh polySurface5
usemtl Material
f 33/97/97 34/98/98 36/100/99
f 36/100/99 34/98/98 35/99/100
s 2
f 37/101/101 40/102/102 38/104/103
f 38/104/103 40/102/102 39/103/104
s 3
f 33/105/105 37/106/106 34/108/107
f 34/108/107 37/106/106 38/107/108
s 4
f 34/109/109 38/110/110 35/112/111
f 35/112/111 38/110/110 39/111/112
s 5
f 35/113/113 39/114/114 36/116/115
f 36/116/115 39/114/114 40/115/116
s 6
f 37/117/117 33/118/118 40/120/119
f 40/120/119 33/118/118 36/119/120
g default
v 0.710799 4.601768 0.706096
v 0.710799 6.023335 0.715471
v -0.710799 6.023335 0.715471
v -0.710799 4.601767 0.706096
v 0.710799 4.611143 -0.715471
v 0.710798 6.032710 -0.706096
v -0.710799 6.032710 -0.706096
v -0.710799 4.611143 -0.715471
v 0.710799 4.601768 0.706096
v 0.710799 6.023335 0.715471
v -0.710799 6.023335 0.715471
v -0.710799 4.601767 0.706096
vt 0.376673 0.749269
vt 0.375900 0.503487
vt 0.375900 0.503487
vt 0.376673 0.749269
vt 0.249306 0.504219
vt 0.374877 0.506418
vt 0.374931 0.749621
vt 0.250104 0.747256
vt 0.125687 0.503316
vt 0.250780 0.503290
vt 0.251113 0.748845
vt 0.126238 0.747512
vt 0.125457 0.755906
vt 0.249146 0.755974
vt 0.249112 0.999932
vt 0.125829 0.999911
vt 0.500661 0.750006
vt 0.500024 0.502517
vt 0.253952 0.761856
vt 0.369216 0.761856
vt 0.369216 0.991808
vt 0.253952 0.991808
vt 0.123832 0.501264
vt 0.124180 0.750315
vt 0.002091 0.753476
vt 0.001326 0.503335
vt 1.000000 1.000000
vt 1.000000 0.000000
vt 1.000000 0.000000
vt 1.000000 1.000000
vt 0.125829 0.999911
vt 0.125457 0.755906
vt 0.126238 0.747512
vt 0.125687 0.503316
vn 0.000000 0.000000 0.000000
vn 0.000000 0.000000 0.000000
vn 0.000000 0.000000 0.000000
vn 0.000000 0.000000 0.000000
vn 0.000000 0.006595 -0.999978
vn -0.000000 0.006595 -0.999978
vn -0.000000 0.006595 -0.999978
vn -0.000000 0.006595 -0.999978
vn 1.000000 -0.000000 0.000000
vn 1.000000 0.000000 -0.000000
vn 1.000000 0.000000 -0.000000
vn 1.000000 0.000001 -0.000001
vn 0.000000 0.999978 0.006596
vn -0.000000 0.999978 0.006596
vn -0.000000 0.999978 0.006596
vn -0.000000 0.999978 0.006596
vn -1.000000 0.000000 0.000000
vn -1.000000 0.000000 0.000000
vn -1.000000 0.000000 0.000000
vn -1.000000 0.000000 0.000000
vn 0.000000 -0.999978 -0.006595
vn 0.000000 -0.999978 -0.006595
vn 0.000000 -0.999978 -0.006595
vn 0.000000 -0.999978 -0.006595
vn 0.000000 -0.006595 0.999978
vn 0.000000 -0.006595 0.999978
vn 0.000000 -0.006595 0.999978
vn 0.000000 -0.006595 0.999978
vn 0.000000 0.000000 0.000000
vn 0.000000 0.000000 0.000000
vn 0.000000 0.000000 0.000000
vn 0.000000 0.000000 0.000000
vn 0.000000 0.000000 0.000000
vn 0.000000 0.000000 0.000000
vn 0.000000 0.000000 0.000000
vn 0.000000 0.000000 0.000000
vn 0.000000 0.000000 0.000000
vn 0.000000 0.000000 0.000000
vn 0.000000 0.000000 0.000000
vn 0.000000 0.000000 0.000000
s 1
g Mesh polySurface6
usemtl Material
f 51/124/121 43/121/122 52/123/123
f 43/121/122 44/122/124 52/123/123
s 2
f 45/125/125 48/126/126 46/128/127
f 46/128/127 48/126/126 47/127/128
s 3
f 41/129/129 45/130/130 42/132/131
f 42/132/131 45/130/130 46/131/132
s 4
f 42/133/133 46/134/134 43/136/135
f 43/136/135 46/134/134 47/135/136
s 5
f 43/121/137 47/137/138 44/122/139
f 44/122/139 47/137/138 48/138/140
s 6
f 45/139/141 41/140/142 48/142/143
f 48/142/143 41/140/142 44/141/144
s 7
f 49/143/145 50/144/146 52/146/147
f 52/146/147 50/144/146 51/145/148
s 8
f 52/150/149 44/147/150 49/149/151
f 44/147/150 41/148/152 49/149/151
s 9
f 50/152/153 42/133/154 51/151/155
f 42/133/154 43/136/156 51/151/155
s 10
f 49/154/157 41/129/158 50/153/159
f 41/129/158 42/132/160 50/153/159
