# This file uses centimeters as units for non-parametric coordinates.

mtllib HeadBody.mtl
g default
v -0.370748 4.610424 -0.804347
v -0.370748 4.610424 0.827248
v 0.370748 4.610424 0.827248
v 0.370747 4.610424 -0.804348
v -0.370748 2.481788 -0.804347
v -0.370747 2.481788 0.827248
v 0.370748 2.481788 0.827248
v 0.370748 2.481788 -0.804347
vt 0.439419 0.501069
vt 0.313044 0.494516
vt 0.314588 0.373515
vt 0.440962 0.380069
vt 0.183671 0.494358
vt 0.127578 0.496613
vt 0.129334 0.382434
vt 0.185427 0.380179
vt 0.622224 0.375264
vt 0.625501 0.005748
vt 0.508958 0.000506
vt 0.505681 0.370022
vt 0.309159 0.373364
vt 0.309159 -0.002509
vt 0.249632 -0.002509
vt 0.249632 0.373364
vt 0.312738 0.372217
vt 0.312738 0.000239
vt 0.438887 0.000239
vt 0.438887 0.372217
vt 0.500000 -0.005172
vt 0.500000 0.370784
vt 0.441207 0.370784
vt 0.441206 -0.005172
vn 0.000000 1.000000 0.000000
vn 0.000000 1.000000 -0.000000
vn 0.000000 1.000000 -0.000000
vn 0.000000 1.000000 -0.000000
vn 0.000000 -1.000000 -0.000000
vn 0.000000 -1.000000 -0.000000
vn 0.000000 -1.000000 -0.000000
vn 0.000000 -1.000000 0.000000
vn -1.000000 0.000000 0.000000
vn -1.000000 -0.000000 0.000000
vn -1.000000 -0.000000 0.000000
vn -1.000000 -0.000000 0.000000
vn 0.000001 0.000000 1.000000
vn 0.000001 0.000000 1.000000
vn 0.000001 0.000000 1.000000
vn 0.000001 0.000000 1.000000
vn 1.000000 0.000000 -0.000000
vn 1.000000 0.000000 -0.000000
vn 1.000000 0.000000 -0.000000
vn 1.000000 0.000000 0.000000
vn 0.000000 0.000000 -1.000000
vn -0.000001 -0.000000 -1.000000
vn -0.000000 -0.000000 -1.000000
vn -0.000001 -0.000000 -1.000000
s 1
g polySurface5 Mesh
usemtl Material
f 1/1/1 2/2/2 4/4/3
f 4/4/3 2/2/2 3/3/4
s 2
f 5/5/5 8/6/6 6/8/7
f 6/8/7 8/6/6 7/7/8
s 3
f 1/9/9 5/10/10 2/12/11
f 2/12/11 5/10/10 6/11/12
s 4
f 2/13/13 6/14/14 3/16/15
f 3/16/15 6/14/14 7/15/16
s 5
f 3/17/17 7/18/18 4/20/19
f 4/20/19 7/18/18 8/19/20
s 6
f 5/21/21 1/22/22 8/24/23
f 8/24/23 1/22/22 4/23/24
g default
v 0.710799 4.601768 0.706096
v 0.710799 6.023335 0.715471
v -0.710799 6.023335 0.715471
v -0.710799 4.601767 0.706096
v 0.710799 4.611143 -0.715471
v 0.710798 6.032710 -0.706096
v -0.710799 6.032710 -0.706096
v -0.710799 4.611143 -0.715471
v 0.710799 4.601768 0.706096
v 0.710799 6.023335 0.715471
v -0.710799 6.023335 0.715471
v -0.710799 4.601767 0.706096
vt 0.376673 0.749269
vt 0.375900 0.503487
vt 0.375900 0.503487
vt 0.376673 0.749269
vt 0.249306 0.504219
vt 0.374877 0.506418
vt 0.374931 0.749621
vt 0.250104 0.747256
vt 0.125687 0.503316
vt 0.250780 0.503290
vt 0.251113 0.748845
vt 0.126238 0.747512
vt 0.125457 0.755906
vt 0.249146 0.755974
vt 0.249112 0.999932
vt 0.125829 0.999911
vt 0.500661 0.750006
vt 0.500024 0.502517
vt 0.253952 0.761856
vt 0.369216 0.761856
vt 0.369216 0.991808
vt 0.253952 0.991808
vt 0.123832 0.501264
vt 0.124180 0.750315
vt 0.002091 0.753476
vt 0.001326 0.503335
vt 1.000000 1.000000
vt 1.000000 0.000000
vt 1.000000 0.000000
vt 1.000000 1.000000
vt 0.125829 0.999911
vt 0.125457 0.755906
vt 0.126238 0.747512
vt 0.125687 0.503316
vn 0.000000 0.000000 0.000000
vn 0.000000 0.000000 0.000000
vn 0.000000 0.000000 0.000000
vn 0.000000 0.000000 0.000000
vn 0.000000 0.006595 -0.999978
vn -0.000000 0.006595 -0.999978
vn -0.000000 0.006595 -0.999978
vn -0.000000 0.006595 -0.999978
vn 1.000000 -0.000000 0.000000
vn 1.000000 0.000000 -0.000000
vn 1.000000 0.000000 -0.000000
vn 1.000000 0.000001 -0.000001
vn 0.000000 0.999978 0.006596
vn -0.000000 0.999978 0.006596
vn -0.000000 0.999978 0.006596
vn -0.000000 0.999978 0.006596
vn -1.000000 0.000000 0.000000
vn -1.000000 0.000000 0.000000
vn -1.000000 0.000000 0.000000
vn -1.000000 0.000000 0.000000
vn 0.000000 -0.999978 -0.006595
vn 0.000000 -0.999978 -0.006595
vn 0.000000 -0.999978 -0.006595
vn 0.000000 -0.999978 -0.006595
vn 0.000000 -0.006595 0.999978
vn 0.000000 -0.006595 0.999978
vn 0.000000 -0.006595 0.999978
vn 0.000000 -0.006595 0.999978
vn 0.000000 0.000000 0.000000
vn 0.000000 0.000000 0.000000
vn 0.000000 0.000000 0.000000
vn 0.000000 0.000000 0.000000
vn 0.000000 0.000000 0.000000
vn 0.000000 0.000000 0.000000
vn 0.000000 0.000000 0.000000
vn 0.000000 0.000000 0.000000
vn 0.000000 0.000000 0.000000
vn 0.000000 0.000000 0.000000
vn 0.000000 0.000000 0.000000
vn 0.000000 0.000000 0.000000
s 1
g Mesh polySurface6
usemtl Material
f 19/28/25 11/25/26 20/27/27
f 11/25/26 12/26/28 20/27/27
s 2
f 13/29/29 16/30/30 14/32/31
f 14/32/31 16/30/30 15/31/32
s 3
f 9/33/33 13/34/34 10/36/35
f 10/36/35 13/34/34 14/35/36
s 4
f 10/37/37 14/38/38 11/40/39
f 11/40/39 14/38/38 15/39/40
s 5
f 11/25/41 15/41/42 12/26/43
f 12/26/43 15/41/42 16/42/44
s 6
f 13/43/45 9/44/46 16/46/47
f 16/46/47 9/44/46 12/45/48
s 7
f 17/47/49 18/48/50 20/50/51
f 20/50/51 18/48/50 19/49/52
s 8
f 20/54/53 12/51/54 17/53/55
f 12/51/54 9/52/56 17/53/55
s 9
f 18/56/57 10/37/58 19/55/59
f 10/37/58 11/40/60 19/55/59
s 10
f 17/58/61 9/33/62 18/57/63
f 9/33/62 10/36/64 18/57/63
