# This file uses centimeters as units for non-parametric coordinates.

mtllib LeftLeg.mtl
g default
v -0.370748 0.000000 -0.809520
v -0.370748 0.000000 -0.001877
v 0.370748 0.000000 -0.001877
v 0.370747 0.000000 -0.809520
v -0.370748 -2.128635 -0.809520
v -0.370747 -2.128635 -0.001876
v 0.370748 -2.128635 -0.001877
v 0.370748 -2.128635 -0.809520
vt 0.122711 0.377515
vt 0.122790 0.486939
vt 0.062175 0.489947
vt 0.062097 0.380523
vt 0.185797 0.496086
vt 0.129150 0.496087
vt 0.130335 0.384604
vt 0.186982 0.384604
vt 0.250211 0.373175
vt 0.250211 0.001371
vt 0.187955 -0.001314
vt 0.187955 0.370491
vt -0.003674 0.368140
vt 0.003760 -0.002275
vt 0.065964 -0.002528
vt 0.058530 0.367886
vt 0.068050 0.365241
vt 0.068050 0.003935
vt 0.122484 0.003935
vt 0.122484 0.365241
vt 0.187525 0.000071
vt 0.187524 0.370784
vt 0.125900 0.370784
vt 0.125900 0.000071
vn 0.000000 1.000000 0.000000
vn 0.000000 1.000000 -0.000000
vn 0.000000 1.000000 -0.000000
vn 0.000000 1.000000 -0.000000
vn 0.000000 -1.000000 0.000000
vn 0.000000 -1.000000 0.000000
vn 0.000000 -1.000000 0.000000
vn 0.000000 -1.000000 0.000000
vn -1.000000 0.000000 0.000000
vn -1.000000 -0.000000 0.000001
vn -1.000000 -0.000000 0.000000
vn -1.000000 -0.000000 0.000001
vn 0.000000 0.000000 1.000000
vn 0.000001 0.000000 1.000000
vn 0.000000 0.000000 1.000000
vn 0.000001 0.000000 1.000000
vn 1.000000 0.000000 -0.000001
vn 1.000000 0.000000 -0.000000
vn 1.000000 0.000000 -0.000001
vn 1.000000 0.000000 0.000000
vn 0.000000 0.000000 -1.000000
vn -0.000001 -0.000000 -1.000000
vn -0.000000 -0.000000 -1.000000
vn -0.000001 -0.000000 -1.000000
s 1
g polySurface2 Mesh
usemtl Material
f 1/1/1 2/2/2 4/4/3
f 4/4/3 2/2/2 3/3/4
s 2
f 5/5/5 8/6/6 6/8/7
f 6/8/7 8/6/6 7/7/8
s 3
f 1/9/9 5/10/10 2/12/11
f 2/12/11 5/10/10 6/11/12
s 4
f 2/13/13 6/14/14 3/16/15
f 3/16/15 6/14/14 7/15/16
s 5
f 3/17/17 7/18/18 4/20/19
f 4/20/19 7/18/18 8/19/20
s 6
f 5/21/21 1/22/22 8/24/23
f 8/24/23 1/22/22 4/23/24
