# This file uses centimeters as units for non-parametric coordinates.

mtllib missile.mtl
g default
v 0.031651 0.010284 -1.000000
v 0.026924 0.019561 -1.000000
v 0.019561 0.026924 -1.000000
v 0.010284 0.031651 -1.000000
v -0.000000 0.033280 -1.000000
v -0.010284 0.031651 -1.000000
v -0.019561 0.026924 -1.000000
v -0.026924 0.019561 -1.000000
v -0.031651 0.010284 -1.000000
v -0.033280 0.000000 -1.000000
v -0.031651 -0.010284 -1.000000
v -0.026924 -0.019561 -1.000000
v -0.019561 -0.026924 -1.000000
v -0.010284 -0.031651 -1.000000
v -0.000000 -0.033280 -1.000000
v 0.010284 -0.031651 -1.000000
v 0.019561 -0.026924 -1.000000
v 0.026924 -0.019561 -1.000000
v 0.031651 -0.010284 -1.000000
v 0.033280 0.000000 -1.000000
v 0.095106 0.030902 -0.333333
v 0.080902 0.058779 -0.333333
v 0.058779 0.080902 -0.333333
v 0.030902 0.095106 -0.333333
v -0.000000 0.100000 -0.333333
v -0.030902 0.095106 -0.333333
v -0.058779 0.080902 -0.333333
v -0.080902 0.058779 -0.333333
v -0.095106 0.030902 -0.333333
v -0.100000 0.000000 -0.333333
v -0.095106 -0.030902 -0.333333
v -0.080902 -0.058779 -0.333333
v -0.058779 -0.080902 -0.333333
v -0.030902 -0.095106 -0.333333
v -0.000000 -0.100000 -0.333333
v 0.030902 -0.095106 -0.333333
v 0.058779 -0.080902 -0.333333
v 0.080902 -0.058779 -0.333333
v 0.095106 -0.030902 -0.333333
v 0.100000 0.000000 -0.333333
v 0.095106 0.030902 0.333333
v 0.080902 0.058779 0.333333
v 0.058779 0.080902 0.333333
v 0.030902 0.095106 0.333333
v 0.000000 0.100000 0.333333
v -0.030902 0.095106 0.333333
v -0.058779 0.080902 0.333333
v -0.080902 0.058779 0.333333
v -0.095106 0.030902 0.333333
v -0.100000 0.000000 0.333333
v -0.095106 -0.030902 0.333333
v -0.080902 -0.058779 0.333333
v -0.058779 -0.080902 0.333333
v -0.030902 -0.095106 0.333333
v -0.000000 -0.100000 0.333333
v 0.030902 -0.095106 0.333333
v 0.058779 -0.080902 0.333333
v 0.080902 -0.058779 0.333333
v 0.095106 -0.030902 0.333333
v 0.100000 0.000000 0.333333
v 0.034034 0.011058 1.000000
v 0.028951 0.021034 1.000000
v 0.021034 0.028951 1.000000
v 0.011058 0.034035 1.000000
v -0.000000 0.035786 1.000000
v -0.011058 0.034035 1.000000
v -0.021034 0.028951 1.000000
v -0.028952 0.021034 1.000000
v -0.034034 0.011058 1.000000
v -0.035785 0.000000 1.000000
v -0.034034 -0.011058 1.000000
v -0.028952 -0.021034 1.000000
v -0.021034 -0.028951 1.000000
v -0.011058 -0.034035 1.000000
v -0.000000 -0.035786 1.000000
v 0.011058 -0.034035 1.000000
v 0.021034 -0.028951 1.000000
v 0.028951 -0.021034 1.000000
v 0.034034 -0.011058 1.000000
v 0.035785 0.000000 1.000000
v -0.000000 0.000000 -1.000000
v -0.000000 0.000000 1.000000
vt 0.987049 0.643497
vt 0.952545 0.575778
vt 0.898803 0.522036
vt 0.831084 0.487532
vt 0.756017 0.475642
vt 0.680951 0.487532
vt 0.613232 0.522036
vt 0.559490 0.575778
vt 0.524986 0.643497
vt 0.513096 0.718563
vt 0.524986 0.793630
vt 0.559490 0.861349
vt 0.613232 0.915091
vt 0.680951 0.949595
vt 0.756017 0.961484
vt 0.831084 0.949595
vt 0.898803 0.915091
vt 0.952545 0.861349
vt 0.987049 0.793630
vt 0.998938 0.718563
vt 0.080244 0.120133
vt 0.099678 0.120133
vt 0.119112 0.120133
vt 0.138545 0.120133
vt 0.157979 0.120133
vt 0.177413 0.120133
vt 0.196846 0.120133
vt 0.216280 0.120133
vt 0.235713 0.120133
vt 0.255147 0.120133
vt 0.274581 0.120133
vt 0.294014 0.120133
vt 0.313448 0.120133
vt 0.332882 0.120133
vt 0.352315 0.120133
vt 0.371749 0.120133
vt 0.391183 0.120133
vt 0.410616 0.120133
vt 0.430050 0.120133
vt 0.449484 0.120133
vt 0.468917 0.120133
vt 0.080244 0.314957
vt 0.099678 0.314957
vt 0.119112 0.314957
vt 0.138545 0.314957
vt 0.157979 0.314957
vt 0.177413 0.314957
vt 0.196846 0.314957
vt 0.216280 0.314957
vt 0.235713 0.314957
vt 0.255147 0.314957
vt 0.274581 0.314957
vt 0.294014 0.314957
vt 0.313448 0.314957
vt 0.332882 0.314957
vt 0.352315 0.314957
vt 0.371749 0.314957
vt 0.391183 0.314957
vt 0.410616 0.314957
vt 0.430050 0.314957
vt 0.449484 0.314957
vt 0.468917 0.314957
vt 0.080244 0.509781
vt 0.099678 0.509781
vt 0.119112 0.509781
vt 0.138545 0.509781
vt 0.157979 0.509781
vt 0.177413 0.509781
vt 0.196846 0.509781
vt 0.216280 0.509781
vt 0.235713 0.509781
vt 0.255147 0.509781
vt 0.274581 0.509781
vt 0.294014 0.509781
vt 0.313448 0.509781
vt 0.332882 0.509781
vt 0.352315 0.509781
vt 0.371749 0.509781
vt 0.391183 0.509781
vt 0.410616 0.509781
vt 0.430050 0.509781
vt 0.449484 0.509781
vt 0.468917 0.509781
vt 0.080244 0.704605
vt 0.099678 0.704605
vt 0.119112 0.704605
vt 0.138545 0.704605
vt 0.157979 0.704605
vt 0.177413 0.704605
vt 0.196846 0.704605
vt 0.216280 0.704605
vt 0.235713 0.704605
vt 0.255147 0.704605
vt 0.274581 0.704605
vt 0.294014 0.704605
vt 0.313448 0.704605
vt 0.332882 0.704605
vt 0.352315 0.704605
vt 0.371749 0.704605
vt 0.391183 0.704605
vt 0.410616 0.704605
vt 0.430050 0.704605
vt 0.449484 0.704605
vt 0.468917 0.704605
vt 0.986119 0.645280
vt 0.951614 0.577561
vt 0.897872 0.523819
vt 0.830154 0.489315
vt 0.755087 0.477425
vt 0.680020 0.489315
vt 0.612301 0.523819
vt 0.558560 0.577561
vt 0.524055 0.645280
vt 0.512166 0.720346
vt 0.524055 0.795413
vt 0.558560 0.863132
vt 0.612302 0.916874
vt 0.680020 0.951378
vt 0.755087 0.963267
vt 0.830154 0.951378
vt 0.897872 0.916874
vt 0.951614 0.863132
vt 0.986119 0.795413
vt 0.998008 0.720346
vt 0.756017 0.708847
vt 0.755087 0.710629
vn 0.946329 0.307482 -0.099583
vn 0.804996 0.584863 -0.099583
vn 0.808378 0.587321 -0.039752
vn 0.950305 0.308772 -0.039752
vn 0.584865 0.804995 -0.099583
vn 0.587321 0.808377 -0.039752
vn 0.307480 0.946329 -0.099583
vn 0.308772 0.950305 -0.039752
vn 0.000000 0.995029 -0.099583
vn 0.000000 0.999210 -0.039752
vn -0.307480 0.946329 -0.099583
vn -0.308772 0.950305 -0.039752
vn -0.584865 0.804995 -0.099583
vn -0.587321 0.808377 -0.039752
vn -0.804996 0.584864 -0.099583
vn -0.808378 0.587321 -0.039752
vn -0.946329 0.307482 -0.099583
vn -0.950305 0.308773 -0.039752
vn -0.995029 0.000000 -0.099583
vn -0.999210 0.000000 -0.039752
vn -0.946329 -0.307483 -0.099583
vn -0.950305 -0.308773 -0.039752
vn -0.804996 -0.584864 -0.099583
vn -0.808377 -0.587321 -0.039752
vn -0.584865 -0.804995 -0.099583
vn -0.587321 -0.808377 -0.039752
vn -0.307480 -0.946329 -0.099583
vn -0.308772 -0.950305 -0.039752
vn 0.000000 -0.995029 -0.099583
vn 0.000000 -0.999210 -0.039752
vn 0.307480 -0.946329 -0.099583
vn 0.308773 -0.950305 -0.039752
vn 0.584865 -0.804995 -0.099583
vn 0.587321 -0.808377 -0.039752
vn 0.804996 -0.584864 -0.099583
vn 0.808378 -0.587321 -0.039752
vn 0.946329 -0.307483 -0.099583
vn 0.950305 -0.308773 -0.039752
vn 0.995029 -0.000001 -0.099583
vn 0.999210 -0.000001 -0.039752
vn 0.808411 0.587346 0.038699
vn 0.950346 0.308781 0.038699
vn 0.587346 0.808410 0.038700
vn 0.308788 0.950343 0.038699
vn 0.000000 0.999251 0.038699
vn -0.308788 0.950343 0.038699
vn -0.587346 0.808410 0.038700
vn -0.808411 0.587345 0.038699
vn -0.950346 0.308781 0.038699
vn -0.999251 -0.000000 0.038699
vn -0.950345 -0.308782 0.038699
vn -0.808410 -0.587346 0.038699
vn -0.587346 -0.808410 0.038700
vn -0.308788 -0.950343 0.038699
vn 0.000000 -0.999251 0.038699
vn 0.308788 -0.950343 0.038699
vn 0.587346 -0.808410 0.038700
vn 0.808411 -0.587345 0.038699
vn 0.950345 -0.308782 0.038699
vn 0.999251 -0.000001 0.038699
vn 0.805289 0.585079 0.095878
vn 0.946679 0.307583 0.095878
vn 0.585080 0.805288 0.095878
vn 0.307600 0.946673 0.095878
vn -0.000000 0.995393 0.095877
vn -0.307601 0.946673 0.095878
vn -0.585080 0.805288 0.095878
vn -0.805289 0.585079 0.095878
vn -0.946678 0.307583 0.095878
vn -0.995393 0.000000 0.095878
vn -0.946678 -0.307583 0.095878
vn -0.805289 -0.585079 0.095878
vn -0.585080 -0.805288 0.095878
vn -0.307601 -0.946673 0.095878
vn 0.000000 -0.995393 0.095877
vn 0.307601 -0.946673 0.095878
vn 0.585080 -0.805288 0.095878
vn 0.805289 -0.585079 0.095878
vn 0.946678 -0.307583 0.095878
vn 0.995393 -0.000001 0.095878
vn 0.000000 -0.000000 -1.000000
vn 0.000000 -0.000000 -1.000000
vn 0.000000 0.000000 -1.000000
vn 0.000000 -0.000000 -1.000000
vn 0.000000 -0.000000 -1.000000
vn 0.000000 -0.000000 -1.000000
vn 0.000000 -0.000000 -1.000000
vn 0.000000 -0.000000 -1.000000
vn 0.000000 -0.000000 -1.000000
vn 0.000000 -0.000000 -1.000000
vn 0.000000 -0.000000 -1.000000
vn 0.000000 -0.000000 -1.000000
vn 0.000000 -0.000000 -1.000000
vn 0.000000 -0.000000 -1.000000
vn 0.000000 0.000000 -1.000000
vn 0.000000 0.000000 -1.000000
vn 0.000000 -0.000000 -1.000000
vn 0.000000 -0.000000 -1.000000
vn 0.000000 -0.000000 -1.000000
vn 0.000000 -0.000000 -1.000000
vn 0.000000 -0.000000 -1.000000
vn 0.000000 0.000000 1.000000
vn 0.000000 0.000000 1.000000
vn 0.000000 -0.000000 1.000000
vn 0.000000 0.000000 1.000000
vn 0.000000 0.000000 1.000000
vn 0.000000 0.000000 1.000000
vn 0.000000 0.000000 1.000000
vn 0.000000 0.000000 1.000000
vn 0.000000 0.000000 1.000000
vn 0.000000 0.000000 1.000000
vn 0.000000 0.000000 1.000000
vn 0.000000 0.000000 1.000000
vn 0.000000 0.000000 1.000000
vn 0.000000 0.000000 1.000000
vn 0.000000 0.000000 1.000000
vn 0.000000 -0.000000 1.000000
vn 0.000000 -0.000000 1.000000
vn 0.000000 0.000000 1.000000
vn 0.000000 0.000000 1.000000
vn 0.000000 0.000000 1.000000
vn 0.000000 0.000000 1.000000
s 1
g pCylinder1
usemtl initialShadingGroup
f 1/21/1 2/22/2 22/43/3 21/42/4
f 2/22/2 3/23/5 23/44/6 22/43/3
f 3/23/5 4/24/7 24/45/8 23/44/6
f 4/24/7 5/25/9 25/46/10 24/45/8
f 5/25/9 6/26/11 26/47/12 25/46/10
f 6/26/11 7/27/13 27/48/14 26/47/12
f 7/27/13 8/28/15 28/49/16 27/48/14
f 8/28/15 9/29/17 29/50/18 28/49/16
f 9/29/17 10/30/19 30/51/20 29/50/18
f 10/30/19 11/31/21 31/52/22 30/51/20
f 11/31/21 12/32/23 32/53/24 31/52/22
f 12/32/23 13/33/25 33/54/26 32/53/24
f 13/33/25 14/34/27 34/55/28 33/54/26
f 14/34/27 15/35/29 35/56/30 34/55/28
f 15/35/29 16/36/31 36/57/32 35/56/30
f 16/36/31 17/37/33 37/58/34 36/57/32
f 17/37/33 18/38/35 38/59/36 37/58/34
f 18/38/35 19/39/37 39/60/38 38/59/36
f 19/39/37 20/40/39 40/61/40 39/60/38
f 20/40/39 1/41/1 21/62/4 40/61/40
f 21/42/4 22/43/3 42/64/41 41/63/42
f 22/43/3 23/44/6 43/65/43 42/64/41
f 23/44/6 24/45/8 44/66/44 43/65/43
f 24/45/8 25/46/10 45/67/45 44/66/44
f 25/46/10 26/47/12 46/68/46 45/67/45
f 26/47/12 27/48/14 47/69/47 46/68/46
f 27/48/14 28/49/16 48/70/48 47/69/47
f 28/49/16 29/50/18 49/71/49 48/70/48
f 29/50/18 30/51/20 50/72/50 49/71/49
f 30/51/20 31/52/22 51/73/51 50/72/50
f 31/52/22 32/53/24 52/74/52 51/73/51
f 32/53/24 33/54/26 53/75/53 52/74/52
f 33/54/26 34/55/28 54/76/54 53/75/53
f 34/55/28 35/56/30 55/77/55 54/76/54
f 35/56/30 36/57/32 56/78/56 55/77/55
f 36/57/32 37/58/34 57/79/57 56/78/56
f 37/58/34 38/59/36 58/80/58 57/79/57
f 38/59/36 39/60/38 59/81/59 58/80/58
f 39/60/38 40/61/40 60/82/60 59/81/59
f 40/61/40 21/62/4 41/83/42 60/82/60
f 41/63/42 42/64/41 62/85/61 61/84/62
f 42/64/41 43/65/43 63/86/63 62/85/61
f 43/65/43 44/66/44 64/87/64 63/86/63
f 44/66/44 45/67/45 65/88/65 64/87/64
f 45/67/45 46/68/46 66/89/66 65/88/65
f 46/68/46 47/69/47 67/90/67 66/89/66
f 47/69/47 48/70/48 68/91/68 67/90/67
f 48/70/48 49/71/49 69/92/69 68/91/68
f 49/71/49 50/72/50 70/93/70 69/92/69
f 50/72/50 51/73/51 71/94/71 70/93/70
f 51/73/51 52/74/52 72/95/72 71/94/71
f 52/74/52 53/75/53 73/96/73 72/95/72
f 53/75/53 54/76/54 74/97/74 73/96/73
f 54/76/54 55/77/55 75/98/75 74/97/74
f 55/77/55 56/78/56 76/99/76 75/98/75
f 56/78/56 57/79/57 77/100/77 76/99/76
f 57/79/57 58/80/58 78/101/78 77/100/77
f 58/80/58 59/81/59 79/102/79 78/101/78
f 59/81/59 60/82/60 80/103/80 79/102/79
f 60/82/60 41/83/42 61/104/62 80/103/80
s 2
f 2/2/81 1/1/82 81/125/83
f 3/3/84 2/2/81 81/125/83
f 4/4/85 3/3/84 81/125/83
f 5/5/86 4/4/85 81/125/83
f 6/6/87 5/5/86 81/125/83
f 7/7/88 6/6/87 81/125/83
f 8/8/89 7/7/88 81/125/83
f 9/9/90 8/8/89 81/125/83
f 10/10/91 9/9/90 81/125/83
f 11/11/92 10/10/91 81/125/83
f 12/12/93 11/11/92 81/125/83
f 13/13/94 12/12/93 81/125/83
f 14/14/95 13/13/94 81/125/83
f 15/15/96 14/14/95 81/125/83
f 16/16/97 15/15/96 81/125/83
f 17/17/98 16/16/97 81/125/83
f 18/18/99 17/17/98 81/125/83
f 19/19/100 18/18/99 81/125/83
f 20/20/101 19/19/100 81/125/83
f 1/1/82 20/20/101 81/125/83
s 3
f 61/123/102 62/122/103 82/126/104
f 62/122/103 63/121/105 82/126/104
f 63/121/105 64/120/106 82/126/104
f 64/120/106 65/119/107 82/126/104
f 65/119/107 66/118/108 82/126/104
f 66/118/108 67/117/109 82/126/104
f 67/117/109 68/116/110 82/126/104
f 68/116/110 69/115/111 82/126/104
f 69/115/111 70/114/112 82/126/104
f 70/114/112 71/113/113 82/126/104
f 71/113/113 72/112/114 82/126/104
f 72/112/114 73/111/115 82/126/104
f 73/111/115 74/110/116 82/126/104
f 74/110/116 75/109/117 82/126/104
f 75/109/117 76/108/118 82/126/104
f 76/108/118 77/107/119 82/126/104
f 77/107/119 78/106/120 82/126/104
f 78/106/120 79/105/121 82/126/104
f 79/105/121 80/124/122 82/126/104
f 80/124/122 61/123/102 82/126/104
