# This file uses centimeters as units for non-parametric coordinates.

mtllib RightArm.mtl
g default
v -0.390163 -2.125971 1.625018
v -0.398696 -2.128471 0.817423
v 0.342704 -2.137409 0.809617
v 0.351237 -2.134908 1.617212
v -0.364577 0.002500 1.618158
v -0.373110 0.000000 0.810564
v 0.368290 -0.008938 0.802758
v 0.376823 -0.006438 1.610353
vt 0.810749 0.385914
vt 0.811271 0.499729
vt 0.759676 0.499733
vt 0.759154 0.385918
vt 0.686919 0.378174
vt 0.749925 0.378174
vt 0.749289 0.500739
vt 0.686282 0.500739
vt 0.747193 0.001975
vt 0.748349 0.364560
vt 0.693041 0.364662
vt 0.691885 0.002077
vt 0.752226 0.003554
vt 0.753944 0.372404
vt 0.690567 0.378607
vt 0.688849 0.009758
vt 0.756093 0.006957
vt 0.756694 0.363210
vt 0.689552 0.364713
vt 0.688950 0.008460
vt 0.692350 0.372208
vt 0.697119 0.006768
vt 0.755237 0.007035
vt 0.750468 0.372475
vn -0.012018 -0.999923 0.003222
vn -0.012019 -0.999923 0.003223
vn -0.012019 -0.999923 0.003223
vn -0.012020 -0.999923 0.003223
vn 0.012020 0.999923 -0.003222
vn 0.012020 0.999923 -0.003222
vn 0.012020 0.999923 -0.003222
vn 0.012020 0.999923 -0.003222
vn -0.999872 0.012054 0.010527
vn -0.999872 0.012054 0.010527
vn -0.999872 0.012054 0.010527
vn -0.999872 0.012054 0.010527
vn -0.010565 -0.003095 -0.999939
vn -0.010565 -0.003095 -0.999939
vn -0.010565 -0.003095 -0.999939
vn -0.010565 -0.003095 -0.999939
vn 0.999872 -0.012053 -0.010527
vn 0.999872 -0.012053 -0.010527
vn 0.999872 -0.012053 -0.010527
vn 0.999872 -0.012053 -0.010527
vn 0.010564 0.003096 0.999939
vn 0.010565 0.003095 0.999939
vn 0.010564 0.003096 0.999939
vn 0.010565 0.003095 0.999939
s 1
g polySurface4 Mesh
usemtl Material
f 1/1/1 2/2/2 4/4/3
f 4/4/3 2/2/2 3/3/4
s 2
f 5/5/5 8/6/6 6/8/7
f 6/8/7 8/6/6 7/7/8
s 3
f 1/9/9 5/10/10 2/12/11
f 2/12/11 5/10/10 6/11/12
s 4
f 2/13/13 6/14/14 3/16/15
f 3/16/15 6/14/14 7/15/16
s 5
f 3/17/17 7/18/18 4/20/19
f 4/20/19 7/18/18 8/19/20
s 6
f 5/21/21 1/22/22 8/24/23
f 8/24/23 1/22/22 4/23/24
